<svg xmlns="http://www.w3.org/2000/svg" width="20" height="14" fill="none"><path fill="#01080E" d="M19.075 5.712a.623.623 0 0 0-.625.621v2.465l-2.844 3.012.01-1.688a.587.587 0 0 0-.587-.585H4.096c-1.239 0-2.21-.897-2.21-2.042v-4.21c0-.614.216-2.043 2.207-2.043l11.53.052c.331 0 .66.024 1.006.073.459.064.882.15 1.204.375l-2.531 2.473a2.146 2.146 0 0 0-1.164-.805c-1.268-.344-2.453.52-2.646 1.69H8.294a2.143 2.143 0 0 0-1.54-1.69c-1.58-.428-3.028 1.016-2.597 2.587.197.72.774 1.294 1.496 1.49 1.207.328 2.336-.438 2.61-1.518h3.273l.006.028c.197.72.774 1.294 1.497 1.49 1.354.369 2.612-.642 2.671-1.929L18.431 2.9l.001.009.64-.637a.746.746 0 0 0 .073-.97C18.465.37 17.338.211 16.805.136a8.377 8.377 0 0 0-1.178-.084L4.096 0C3.024 0 2.13.336 1.512.972.941 1.56.64 2.36.64 3.285v4.21a3.19 3.19 0 0 0 1.008 2.331 3.528 3.528 0 0 0 2.449.954h10.262v2.599a.622.622 0 0 0 .624.621.624.624 0 0 0 .455-.196l4.092-4.334a.62.62 0 0 0 .17-.425V6.334a.623.623 0 0 0-.624-.622Zm-13.178.873a1.196 1.196 0 0 1-.835-.83c-.24-.877.568-1.682 1.448-1.443.403.11.725.43.835.83.24.878-.568 1.683-1.448 1.443Zm7.385 0a1.196 1.196 0 0 1-.835-.83c-.24-.877.568-1.682 1.449-1.443.403.11.724.43.834.83.241.878-.567 1.683-1.448 1.443Z"/></svg>