<svg xmlns="http://www.w3.org/2000/svg" width="70" height="72" fill="none"><path fill="#FA6F73" d="M1 9h7.133v31.206H1zM20.035 33.296H17.54l-.446 6.91H9.96L14.418 9h8.737l4.502 31.205h-7.176zm-.357-5.796-.668-9.54h-.446l-.624 9.54zM33.853 26.328c-.631 0-1.163.078-1.579.23q-.584.212-.934.572c-.232.236-.395.51-.499.837a4 4 0 0 0-.176 1.201v.217q0 .722.17 1.215t.442.85c.188.245.41.462.654.644.298.223.605.442.898.642l.835.542q.486.317.856.711.391.422.627.963c.163.375.245.815.245 1.307v.217c0 .713-.094 1.215-.29 1.577-.276.5-.755.787-1.315.787-.6 0-1.604-.324-1.604-2.494a13 13 0 0 1 .028-.976h-1.533a9 9 0 0 0-.013.542v.955c0 1.14.24 2.003.716 2.56.437.517 1.27.78 2.471.78 1.189 0 2.019-.263 2.464-.783.481-.557.724-1.418.724-2.557v-.433c0-.547-.057-1.009-.17-1.373a3.3 3.3 0 0 0-.435-.928 3 3 0 0 0-.625-.67 20 20 0 0 0-.915-.676l-.837-.586a8 8 0 0 1-.809-.65 3.5 3.5 0 0 1-.662-.826 2.3 2.3 0 0 1-.297-1.143v-.217c0-1.232.794-1.67 1.475-1.67.596 0 1.095.284 1.405.8.23.385.338.95.35 1.824h1.52v-.715c0-1.135-.241-1.98-.714-2.514-.448-.507-1.28-.762-2.473-.762M42.938 26.328c-1.207 0-2.043.253-2.482.757-.469.533-.705 1.375-.705 2.496v7.35c0 1.137.236 1.985.707 2.518.437.504 1.273.757 2.48.757 1.195 0 2.025-.255 2.472-.759.475-.535.716-1.38.716-2.515V29.58c0-1.12-.24-1.959-.716-2.492-.446-.506-1.279-.761-2.472-.761m1.561 9.736c0 .926-.078 1.507-.253 1.89-.259.563-.735.886-1.308.886s-1.052-.324-1.31-.885c-.173-.382-.25-.965-.25-1.891V30.47c0-.926.075-1.51.25-1.89.26-.563.736-.886 1.31-.886.573 0 1.05.323 1.31.887.173.381.25.965.25 1.889zM55.457 34.657c-.494-.834-1.178-1.3-1.411-1.425a6 6 0 0 0-1.87-.608v-.003c.11-.01 2.135-.212 2.978-1.952.495-1.023.609-2.634-.392-3.559-.62-.572-1.407-.641-1.735-.65l-3.974.084v13.444h1.227l-.39-2.645c.05.255.298 1.41 1.392 2.192.193.138 1.256.866 2.613.586.236-.049.76-.158 1.23-.549 1.266-1.055 1.222-3.413.331-4.915m-4.67-6.746h1.453c.994-.013 1.349.387 1.438.5.703.893-.119 2.99-1.518 3.47-.544.187-1.062.089-1.372-.002zm0 5.334c.296-.063.794-.13 1.389-.014 0 0 .486.095.875.297 1.277.665 2.146 3.364 1.061 4.641-.034.04-.588.673-1.358.645-.97-.035-1.673-1.094-1.905-1.875-.099-.332-.077-.493-.065-1.815.008-.806.006-1.461.004-1.88M9.11 54.495q0 2.04-.933 3.09-.932 1.053-3.122 1.052-2.213 0-3.134-1.051Q1 56.534 1 54.496v-7.33q0-2.037.921-3.09.922-1.052 3.134-1.052 2.19 0 3.122 1.052.933 1.052.933 3.09v1.583H5.749v-.716q0-1.148-.163-1.529-.163-.379-.531-.379-.37 0-.532.38t-.162 1.528v5.595q0 1.15.162 1.529.162.38.532.379.369 0 .53-.38.165-.378.164-1.528a39 39 0 0 0-.065-2.32q-.044-.39-.087-.63H8.96q.042.088.086.283.021.173.043.434.021.26.022.694zM14.25 43.024q2.19 0 3.122 1.052.933 1.051.933 3.069v7.35q0 2.04-.933 3.09-.932 1.053-3.123 1.052-2.21 0-3.133-1.051-.922-1.052-.921-3.09v-7.352q0-2.016.921-3.068.922-1.051 3.133-1.052m.693 5.01q0-1.15-.174-1.53-.174-.379-.52-.379-.348 0-.52.38-.174.38-.174 1.528v5.595q0 1.15.173 1.529.174.38.52.379.347 0 .521-.38.174-.378.174-1.528zM24.57 51.784h.217l-.217-8.543h3.036v15.18h-3.904l-1.17-8.653h-.217l.217 8.652h-3.036V43.241H23.4zM33.981 58.42h-3.469V46.342h-2.038v-3.1h7.546v3.1H33.98zM45.062 55.449q0 .825.022 1.398.02.574.064.922.022.413.066.65h-3.47a1.2 1.2 0 0 1-.065-.281 3 3 0 0 1-.065-.445 9 9 0 0 1-.021-.683v-3.231q0-.651-.076-1.062-.076-.413-.217-.64a.75.75 0 0 0-.358-.314 1.3 1.3 0 0 0-.477-.087h-.109v6.744h-3.469V43.241h4.272q1.062 0 1.81.152.749.152 1.226.531.477.38.694 1.02.217.639.217 1.593 0 .933-.163 1.594-.163.662-.531 1.074-.37.411-.998.596-.63.184-1.561.184v.217q.888 0 1.496.163.608.162.987.575.38.411.553 1.127.173.715.173 1.8zm-3.903-6.874q.433 0 .617-.26.185-.26.185-.867 0-.542-.185-.824-.184-.282-.617-.282h-.803v2.234zM50.244 43.024q2.19 0 3.123 1.052.932 1.051.932 3.069v7.35q0 2.04-.932 3.09-.933 1.053-3.123 1.052-2.212 0-3.133-1.051-.922-1.052-.922-3.09v-7.352q0-2.016.922-3.068.92-1.051 3.133-1.052m.694 5.01q0-1.15-.174-1.53-.173-.379-.52-.379t-.52.38q-.174.38-.174 1.528v5.595q0 1.15.174 1.529.173.38.52.379.347 0 .52-.38.174-.378.174-1.528zM61.801 58.42h-6.31V43.241h3.47V55.32h2.84zM69 46.342h-2.84v2.927h2.514v2.82H66.16v3.23H69v3.101h-6.31V43.241H69z"/></svg>