<svg width="14" height="14" viewBox="0 0 15 15" fill="none" xmlns="http://www.w3.org/2000/svg">
<path d="M14.3337 0.590566C14.1642 0.439861 13.9453 0.356597 13.7185 0.356567H9.08882L8.98048 0.363049C8.74613 0.390923 8.53127 0.507231 8.37979 0.688209C8.22832 0.869186 8.15167 1.10117 8.1655 1.33677C8.17933 1.57237 8.2826 1.79379 8.45421 1.9558C8.62582 2.11782 8.85281 2.20818 9.08882 2.20844H11.4833L4.92669 8.76447L6.025 10.2853L12.7926 3.51772V5.9122L12.7991 6.02054C12.8269 6.25489 12.9432 6.46975 13.1242 6.62122C13.3052 6.7727 13.5372 6.84935 13.7728 6.83552C14.0084 6.82169 14.2298 6.71842 14.3918 6.54681C14.5538 6.3752 14.6442 6.1482 14.6445 5.9122V1.28251L14.638 1.17417C14.6114 0.948936 14.5032 0.741271 14.3337 0.590566Z" fill="#D7F9FF"/>
<path d="M8.54994 7.75848L7.24066 6.4492L2.33967 11.3502V8.95572L2.33319 8.84739C2.30531 8.61303 2.18901 8.39817 2.00803 8.2467C1.82705 8.09522 1.59506 8.01857 1.35947 8.0324C1.12387 8.04623 0.902444 8.1495 0.740434 8.32111C0.578423 8.49272 0.488055 8.71972 0.487793 8.95572V13.5854L0.494275 13.6937C0.520809 13.919 0.629084 14.1266 0.798564 14.2774C0.968043 14.4281 1.18694 14.5113 1.41373 14.5114H6.04343L6.15176 14.5049C6.38611 14.477 6.60098 14.3607 6.75245 14.1797C6.90392 13.9987 6.98058 13.7667 6.96675 13.5311C6.95291 13.2956 6.84964 13.0741 6.67803 12.9121C6.50642 12.7501 6.27943 12.6597 6.04343 12.6595H3.64895L8.54994 7.75848Z" fill="#D7F9FF"/>
</svg>
